<svg width="244" height="569" viewBox="0 0 244 569" fill="none" xmlns="http://www.w3.org/2000/svg">
<g clip-path="url(#clip0_1434_2953)">
<rect width="244" height="569" rx="6" fill="#F8FAFC"/>
<path d="M50.5002 157.607C36.5001 156.607 13.4037 158.27 17.0002 170.5C18.498 175.593 32.2428 182.505 53 189.902C66.8847 194.851 83.9071 200.016 102.5 205C128.539 211.979 161.207 220.832 186.5 223.821C208.318 226.4 224.648 224.615 226.5 213.5C228.833 199.5 211 190.5 193 186V166.5L183.5 160.167L217.5 132.5L215 105L234.5 116.5L228.5 81L118.5 101.5L68 140.592C67.0405 140.417 66.0438 140.22 65.0003 140L50.5002 157.607Z" fill="#AF98CB"/>
<path d="M167.5 431.5C172.868 429.72 174.273 424.773 176 414C176.616 423.769 177.021 429.176 184 431.5C182.753 432.166 181.681 432.823 180.755 433.49C187.172 434.447 192.803 435.47 197 435.86C197.601 430.751 197.992 426.276 198.069 422C198.146 417.779 197.916 413.752 197.279 409.5C196.636 405.206 195.578 400.683 194 395.5C190.5 384 196.932 319.77 194 316C183.5 302.5 160.5 286 160.177 277.5C160.079 280.035 158.811 282.419 156 284C146.5 289.344 133.788 287.737 121.5 282C116.47 285.503 112.815 288.702 110 291.971C104.732 298.088 102.403 304.449 99.5 313.5C98.1578 316.483 97.9721 323.513 98.5222 333C99.2727 345.943 101.393 363.458 103.813 381.5C105.567 394.569 107.478 407.914 109.141 420C119.157 418.5 128.813 415.5 139.627 411C139.81 414.855 139.857 417.977 139.409 420C139.212 420.89 138.919 421.567 138.5 422C133.664 427 133.285 429.44 133.5 434.123C135.895 434.127 138.845 433.775 142.5 433C150.992 431.199 160.003 431.25 168.456 431.988C168.151 431.825 167.832 431.662 167.5 431.5Z" fill="#AF98CB"/>
<path d="M139 462C143.129 461.402 145.57 459.082 147.855 454.652C134.413 452.201 123.991 447.89 112.573 445.359C111.863 446.529 111.263 447.847 110.708 449.364C125.261 493.748 128.865 526.139 125 573H216.5C196.895 516.798 196.198 497.445 198.069 466.602V453.857C189.723 455.567 179.777 456.5 168.5 456.5C162.1 456.5 156.386 456.003 151.143 455.203C151.572 459.188 153.385 460.773 158 460C149.304 465.259 148.672 471.417 149 483.5C147.885 471.651 146.707 465.689 139 462Z" fill="#AF98CB"/>
<path d="M91.5 276C74.5 275.5 64 267.5 63.5 261.5C54 270 21.5 313.5 -3 362L-13 573L62.5 568C59.5385 532.581 60.9081 513.05 66 478.5L70 445.651C42.969 448.087 25.9454 446.144 28.5 435.5C31.205 424.229 45.0839 417.869 68.5 419.263C71.5876 400.103 72.1664 388.002 73.1066 371.5C73.3596 367.06 73.6388 362.301 74 357C74.4176 350.873 74.8752 345.268 75.4227 340C77.5369 319.661 80.9917 304.357 88.6574 283.5C89.5468 281.08 90.4928 278.586 91.5 276Z" fill="#AF98CB"/>
<path fill-rule="evenodd" clip-rule="evenodd" d="M147.855 454.652C149.041 452.354 150.185 449.488 151.5 446C151.105 449.858 150.898 452.923 151.143 455.203C150.026 455.032 148.931 454.848 147.855 454.652Z" fill="#AF98CB"/>
<path fill-rule="evenodd" clip-rule="evenodd" d="M112.573 445.359C111.487 445.119 110.393 444.894 109.286 444.689C109.816 447.257 109.654 450.519 109 455C109.57 452.848 110.113 450.991 110.708 449.364C111.263 447.847 111.863 446.529 112.573 445.359Z" fill="#AF98CB"/>
<path fill-rule="evenodd" clip-rule="evenodd" d="M167.5 431.5C172.868 429.72 174.273 424.773 176 414C176.616 423.769 177.021 429.176 184 431.5C182.753 432.166 181.681 432.823 180.755 433.49C176.893 432.914 172.746 432.363 168.456 431.988C168.151 431.825 167.832 431.662 167.5 431.5Z" fill="#AF98CB"/>
<path d="M146.5 442C142.649 452.211 140.27 457.092 134 458C141.707 461.689 142.885 467.651 144 479.5C143.672 467.417 144.304 461.259 153 456C145.745 457.215 145.415 452.604 146.5 442Z" fill="#1F002E"/>
<path d="M171 410C169.273 420.773 167.868 425.72 162.5 427.5C169.003 430.668 170.165 434.086 169.5 442C170.402 434.883 171.791 431.353 179 427.5C172.021 425.176 171.616 419.769 171 410Z" fill="#1F002E"/>
<path d="M108.5 420.5C106.296 427.781 104.525 431.075 99 433.5C104.489 437.161 105.444 441.115 104 451C106.206 442.671 108.005 438.758 114 435.5C108.475 432.572 108.414 428.297 108.5 420.5Z" fill="#1F002E"/>
<path d="M135 225C124.855 227.326 119 232.5 120 240C120.797 245.976 134.999 246.355 141 242.5C147.499 238.324 147 228 142.5 224.348C139.889 224.25 137.324 224.467 135 225Z" fill="#1F002E"/>
<path d="M82.9092 215.035C90.4996 219.793 93.9078 226.744 90.5 233.5C87.7845 238.883 75.8961 235.206 71.4945 229.593C66.727 223.515 70.5897 213.927 76.0394 211.956C78.5375 212.721 80.889 213.768 82.9092 215.035Z" fill="#1F002E"/>
<path d="M146.122 262C142.434 263.005 138.546 263.826 134.5 264.5C113.836 267.944 91.3451 261.903 75.5748 253C68.5 252 58.1778 253.634 58.5 257.5C59 263.5 69.5 271.5 86.5 272C85.4928 274.586 84.5468 277.08 83.6574 279.5C88.1119 286.935 92.2182 289.397 105 287.971C107.815 284.702 111.47 281.503 116.5 278C128.788 283.737 141.5 285.344 151 280C153.811 278.419 155.079 276.035 155.177 273.5C155.359 268.819 151.556 263.622 146.122 262Z" fill="#1F002E"/>
<path d="M134.409 416C122.909 417 116.879 423.254 120 427C121.614 428.936 124.14 430.117 128.5 430.123C128.285 425.44 128.664 423 133.5 418C133.919 417.567 134.212 416.89 134.409 416Z" fill="#1F002E"/>
<path d="M198.5 431.5C207.3 427.5 201.569 418.5 193.069 418C192.992 422.276 192.601 426.751 192 431.86C194.95 432.134 197.191 432.095 198.5 431.5Z" fill="#1F002E"/>
<path d="M70.4227 336C69.8752 341.268 69.4175 346.873 69 353C68.6388 358.301 68.3596 363.06 68.1066 367.5C70.3369 377.781 72.9245 383.581 79.5 394C80.7188 382.953 82.6115 376.599 88 365L98.8134 377.5C96.3927 359.458 94.2727 341.943 93.5222 329L86.5 337C85.0279 323.463 86.0288 315.93 88 302.5C79.4827 315.092 75.2404 322.312 70.4227 336Z" fill="#1F002E"/>
<path d="M97.5 249C100 253.5 106.5 255.5 112.5 251.5M156.001 228C152.131 225.743 147.24 224.525 142.5 224.348M142.5 224.348C139.889 224.25 137.324 224.467 135 225C124.855 227.326 119 232.5 120 240C120.797 245.976 134.999 246.355 141 242.5C147.499 238.324 147 228 142.5 224.348ZM63.9998 209.5C68.4998 210 71.5036 210.566 76.0394 211.956M76.0394 211.956C78.5375 212.721 80.889 213.768 82.9092 215.035C90.4996 219.793 93.9078 226.744 90.5 233.5C87.7845 238.883 75.8961 235.206 71.4945 229.593C66.727 223.515 70.5897 213.927 76.0394 211.956ZM45.5002 153.607C31.5001 152.607 8.40369 154.27 12.0002 166.5C13.498 171.593 27.2428 178.505 48 185.902M189 182C207 186.5 223.833 195.5 221.5 209.5C219.648 220.615 203.318 222.4 181.5 219.821M39.0003 161.5L60.0003 136C61.0438 136.22 62.0405 136.417 63 136.592M86.0003 137C76.8571 138.036 71.3249 138.118 63 136.592M63 136.592L113.5 97.5L223.5 77L229.5 112.5L210 101L212.5 128.5L178.5 156.167M165.5 147.5L178.5 156.167M188 194V162.5L178.5 156.167M199 93C178.373 94.433 166.916 95.5741 148 102.5M95.5 132H132M136 137L133.5 161.5M149 135L160 143M128.5 184C145.367 190.766 155.049 193.648 173.5 194M48 185.902C61.8847 190.851 78.9071 196.016 97.5003 201C123.539 207.979 156.207 216.832 181.5 219.821M48 185.902C44 202.5 47.9733 228.043 61 242C64.5815 245.837 69.595 249.624 75.5748 253M181.5 219.821C181.5 244.628 167.045 256.295 146.122 262M146.122 262C142.434 263.005 138.546 263.826 134.5 264.5C113.836 267.944 91.3451 261.903 75.5748 253M146.122 262C151.556 263.622 155.359 268.819 155.177 273.5M75.5748 253C68.5 252 58.1778 253.634 58.5 257.5M58.5 257.5C59 263.5 69.5 271.5 86.5 272C85.4928 274.586 84.5468 277.08 83.6574 279.5M58.5 257.5C49 266 16.5 309.5 -8 358M83.6574 279.5C88.1119 286.935 92.2182 289.397 105 287.971M83.6574 279.5C75.9917 300.357 72.5369 315.661 70.4227 336M105 287.971C107.815 284.702 111.47 281.503 116.5 278C128.788 283.737 141.5 285.344 151 280C153.811 278.419 155.079 276.035 155.177 273.5M105 287.971C99.7317 294.088 97.4034 300.449 94.5 309.5C93.1578 312.483 92.9721 319.513 93.5222 329M137.5 366C132.571 380.129 134.12 396.359 134.627 407M133.5 418C128.664 423 128.285 425.44 128.5 430.123M133.5 418C133.919 417.567 134.212 416.89 134.409 416C122.909 417 116.879 423.254 120 427C121.614 428.936 124.14 430.117 128.5 430.123M133.5 418C134.871 416.582 134.891 412.552 134.627 407M128.5 430.123C130.895 430.127 133.845 429.775 137.5 429C157.466 424.765 180.302 430.773 192 431.86M155.177 273.5C155.5 282 178.5 298.5 189 312C191.932 315.77 185.5 380 189 391.5C190.578 396.683 191.636 401.206 192.279 405.5M192 431.86C194.95 432.134 197.191 432.095 198.5 431.5C207.3 427.5 201.569 418.5 193.069 418C192.992 422.276 192.601 426.751 192 431.86ZM192 431.86C193.193 421.709 193.561 414.061 192.279 405.5M134.627 407C123.813 411.5 114.157 414.5 104.141 416M192.279 405.5C205.5 407 222.758 422.159 222 430.123C220.726 443.5 198.532 452.5 163.5 452.5C137.019 452.5 122.266 443.993 104.141 440.662M104.141 416C94.125 417.5 83.75 417.5 71.5 416C68.7213 415.66 66.0539 415.415 63.5 415.263M104.141 416C102.478 403.914 100.567 390.569 98.8134 377.5M63.5 415.263C40.0839 413.869 26.205 420.229 23.5 431.5C20.5 444 44.5 444.5 80 440C89.21 438.833 96.9415 439.339 104.141 440.662M63.5 415.263C66.5876 396.103 67.1664 384.002 68.1066 367.5M104.141 440.662C120 487.5 124 520.5 120 569M161 463.5C173.988 464.454 183.409 464.471 193.069 462.602M214 456C206.147 459.242 199.554 461.347 193.069 462.602M193.069 462.602C191.198 493.445 191.895 512.798 211.5 569M61 474.5C55.9081 509.05 54.5385 528.581 57.5 564M44.5 302.5C32.5 331.5 23.5 349.5 19 368.5C12.0139 397.997 10.0313 418.083 -2.5 445M55 394C55 405.5 38.8481 400.289 30.5 403.5C24 406 19 413.5 19 424.5M16.5 450.5C16.8423 459.512 17.7776 463.906 26.5 465.5M214.5 404C221.5 409 220.342 411.052 223.5 418C224.811 420.883 230.825 423.017 232 428C233.067 432.523 229.826 439.766 221.5 445M70.4227 336C69.8752 341.268 69.4176 346.873 69 353C68.6388 358.301 68.3596 363.06 68.1066 367.5M70.4227 336C75.2404 322.312 79.4827 315.092 88 302.5C86.0288 315.93 85.0279 323.463 86.5 337L93.5222 329M93.5222 329C94.2727 341.943 96.3927 359.458 98.8134 377.5M68.1066 367.5C70.3369 377.781 72.9245 383.581 79.5 394C80.7188 382.953 82.6115 376.599 88 365L98.8134 377.5M146.5 442C142.649 452.211 140.27 457.092 134 458C141.707 461.689 142.885 467.651 144 479.5C143.672 467.417 144.304 461.259 153 456C145.745 457.215 145.415 452.604 146.5 442ZM171 410C169.273 420.773 167.868 425.72 162.5 427.5C169.003 430.668 170.165 434.086 169.5 442C170.402 434.883 171.791 431.353 179 427.5C172.021 425.176 171.616 419.769 171 410ZM108.5 420.5C106.296 427.781 104.525 431.075 99 433.5C104.489 437.161 105.444 441.115 104 451C106.206 442.671 108.005 438.758 114 435.5C108.475 432.572 108.414 428.297 108.5 420.5Z" stroke="#1F002E" stroke-width="3" stroke-linecap="round" stroke-linejoin="round"/>
</g>
<rect x="1" y="1" width="242" height="567" rx="5" stroke="#D1CBE1" stroke-width="2"/>
<defs>
<clipPath id="clip0_1434_2953">
<rect width="244" height="569" rx="6" fill="white"/>
</clipPath>
</defs>
</svg>
