<svg width="244" height="569" viewBox="0 0 244 569" fill="none" xmlns="http://www.w3.org/2000/svg">
<rect x="1" y="1" width="242" height="567" rx="5" fill="#F8FAFC"/>
<rect x="1" y="1" width="242" height="567" rx="5" stroke="#D1CBE1" stroke-width="2"/>
<path d="M128 376.5V410H159.5V376.5H137.5H128Z" fill="#AF98CB"/>
<path d="M204 410V376.5H184.5H178V410H204Z" fill="#AF98CB"/>
<path d="M81.5 352C66.1083 350.489 57.3062 350.257 41 352C41 354.602 41 357.247 41.0631 359.836C56.8265 361.624 65.665 361.878 81.4307 360.227C81.5 357.56 81.5 354.792 81.5 352Z" fill="#AF98CB"/>
<path d="M41 408C56.9877 414.503 65.876 414.639 81.5 409C81.5 406.208 81.5 403.578 81.4307 401.119C66.1231 405.113 57.2711 404.851 41.0631 400.5C41 402.883 41 405.398 41 408Z" fill="#AF98CB"/>
<path d="M75.2525 238C82.4921 229.968 108.445 235.578 127 243C138.185 247.474 166.407 261.156 166.648 269L168 218.308C156.565 217.289 144.615 215.536 133.392 213.5C120.43 211.149 111.424 206.76 100.5 203.5C92.2698 217.891 82.5 224.5 75.2525 238Z" fill="#AF98CB"/>
<path d="M77.8926 191.5C76.9676 202.451 72.5222 206.964 66.8926 209C75.0568 210.465 76.8601 215.132 77.8926 226.5C77.6767 214.69 78.6567 209.36 86.8926 207.5C80.7002 206.51 79.4564 201.577 77.8926 191.5Z" fill="#1F002E"/>
<path d="M169.393 160C167.303 168.485 166.497 173.791 159.893 175.5C165.23 177.575 166.015 182.03 166.393 191.5C167.249 182.287 168.081 177.627 173.893 175.5C168.723 172.996 169.017 168.272 169.393 160Z" fill="#1F002E"/>
<path d="M135.393 214.5C133.814 223.326 132.472 227.512 125.893 228C132.415 229.713 133.413 233.763 133.893 242.5C134.602 234.493 135.607 230.511 142.893 228C135.979 227.121 135.839 222.509 135.393 214.5Z" fill="#1F002E"/>
<path d="M77.8926 191.5C76.9676 202.451 72.5222 206.964 66.8926 209C75.0568 210.465 76.8601 215.132 77.8926 226.5C77.6767 214.69 78.6567 209.36 86.8926 207.5C80.7002 206.51 79.4564 201.577 77.8926 191.5Z" stroke="#1F002E" stroke-width="3" stroke-linecap="round" stroke-linejoin="round"/>
<path d="M169.393 160C167.303 168.485 166.497 173.791 159.893 175.5C165.23 177.575 166.015 182.03 166.393 191.5C167.249 182.287 168.081 177.627 173.893 175.5C168.723 172.996 169.017 168.272 169.393 160Z" stroke="#1F002E" stroke-width="3" stroke-linecap="round" stroke-linejoin="round"/>
<path d="M135.393 214.5C133.814 223.326 132.472 227.512 125.893 228C132.415 229.713 133.413 233.763 133.893 242.5C134.602 234.493 135.607 230.511 142.893 228C135.979 227.121 135.839 222.509 135.393 214.5Z" stroke="#1F002E" stroke-width="3" stroke-linecap="round" stroke-linejoin="round"/>
<path d="M102.5 249.5C86 243.5 66.5 251 69.5 236.5C69.7848 235.123 70.384 233.964 71.2525 233C78.4921 224.968 104.445 230.578 123 238C134.185 242.474 162.407 256.156 162.648 264C162.677 264.922 162.318 265.764 161.5 266.5C157.994 269.656 149.5 270.5 138 266.5C126.502 253.395 118.577 250.09 102.5 249.5Z" fill="#1F002E"/>
<path d="M155.5 371.5H174H180.5V355.5H133.5V371.5H155.5Z" fill="#1F002E"/>
<path d="M44 364C53.7544 365.782 59.4339 366.362 70.5 365.5C70.7248 370.188 68.4452 372.475 64 376.5C59.9406 379.833 58.7726 382.749 61 392C66.7772 392.31 69.4783 391.651 74 390V393C61.8906 395.011 55.1031 395.063 43 393C48.4312 393.105 51.3596 392.972 55.5 391C56.8911 382.916 57.405 378.709 54 376.5C45.8415 372.11 44.1519 369.314 44 364Z" fill="#1F002E"/>
<path d="M172.893 199C192.393 197.5 195.893 204.174 186.393 205C167.07 206.68 155.893 206 136.893 201M72.8931 179C62.3931 178 59.0181 183 65.8931 185.5C71.3931 187.5 78.3931 185.5 86.3931 187.5M86.3931 281L79.3927 288.5M74.393 291.5L68 298.5M72 301.5L79.3927 305.5M85.5 305.5L92 297.5M99 287L105 290.5M99 295.5L94.5 301.5M89.5 309L84 316.5M86.3931 320L93.5 323.5M101 318.5L105 312M107.5 309L111 303M116.5 297.5V304M116.5 310L114.5 318.5M118 321.5H124M127.5 316.5L129.5 308M131.5 300L133.5 293M135.5 288.5L136.5 280.5M136.893 275.5L138 266.5M138 266.5C149.5 270.5 157.994 269.656 161.5 266.5C162.318 265.764 162.677 264.922 162.648 264M138 266.5C126.502 253.395 118.577 250.09 102.5 249.5M88.5 276.5L94.5 265.5L84.5 266.5M79.3927 265V254.5M83.5 253.5H88M93 252.5L102.5 249.5M102.5 249.5C86 243.5 66.5 251 69.5 236.5C69.7848 235.123 70.384 233.964 71.2525 233M155.5 371.5V405M155.5 371.5H174M155.5 371.5H133.5M155.5 405H124V371.5H133.5M155.5 405H174M174 371.5V405M174 371.5H180.5M174 405H200V371.5H180.5M133.5 371.5V355.5H180.5V371.5M37.0631 395.5C37.3032 386.432 38.4569 379.272 44 376.5C38.4569 373.728 37.3032 364.686 37.0631 354.836M37.0631 395.5C37 397.883 37 400.398 37 403C52.9877 409.503 61.876 409.639 77.5 404C77.5 401.208 77.5 398.578 77.4307 396.119M37.0631 395.5C53.2711 399.851 62.1231 400.113 77.4307 396.119M77.4307 396.119C77.1772 387.127 75.9968 380.426 70.5 376.5C75.9968 373.359 77.1772 364.977 77.4307 355.227M37.0631 354.836C37 352.247 37 349.602 37 347C53.3062 345.257 62.1083 345.489 77.5 347C77.5 349.792 77.5 352.56 77.4307 355.227M37.0631 354.836C52.8265 356.624 61.665 356.878 77.4307 355.227M71.2525 233C78.4921 224.968 104.445 230.578 123 238C134.185 242.474 162.407 256.156 162.648 264M71.2525 233C78.5 219.5 88.2698 212.891 96.5 198.5M96.5 198.5C107.424 201.76 116.43 206.149 129.392 208.5C140.615 210.536 152.565 212.289 164 213.308M96.5 198.5C91.4116 196.981 85.9071 195.708 79.3927 195C56.3925 192.5 32.8925 201 24.3924 194C16.9894 187.903 39.893 171 74.393 171C91.893 171 98.6139 179.571 110.893 183.5C131.893 190.22 223.393 176.5 220.892 199C219.259 213.697 193.321 215.919 164 213.308M162.648 264L164 213.308M44 364C53.7544 365.782 59.4339 366.362 70.5 365.5C70.7248 370.188 68.4452 372.475 64 376.5C59.9406 379.833 58.7726 382.749 61 392C66.7772 392.31 69.4783 391.651 74 390V393C61.8906 395.011 55.1031 395.063 43 393C48.4312 393.105 51.3596 392.972 55.5 391C56.8911 382.916 57.405 378.709 54 376.5C45.8415 372.11 44.1519 369.314 44 364Z" stroke="#1F002E" stroke-width="3" stroke-linecap="round" stroke-linejoin="round"/>
<path d="M125.917 331.516L107.646 328L95.3621 391.829L113.634 395.345L125.917 331.516Z" fill="#1F002E"/>
<path d="M95.3621 391.829L107.646 328L125.917 331.516L113.634 395.345M95.3621 391.829L92.9999 404.104L111.272 407.62L113.634 395.345M95.3621 391.829L113.634 395.345" stroke="#1F002E" stroke-width="3" stroke-linecap="round" stroke-linejoin="round"/>
</svg>
