<svg width="257" height="569" viewBox="0 0 257 569" fill="none" xmlns="http://www.w3.org/2000/svg">
<rect x="1" y="1" width="255" height="567" rx="5" fill="#F8FAFC"/>
<rect x="1" y="1" width="255" height="567" rx="5" stroke="#D1CBE1" stroke-width="2"/>
<path d="M120 243.5C138.5 255.5 176 262 176 275.5L180.5 220.589C168.054 219.635 154.838 217.738 142.499 215.5C130.495 213.323 121.884 209.397 112 206.24L85.7539 243.242C92.2696 234.348 111.517 237.998 120 243.5Z" fill="#AF98CB"/>
<path d="M155 316L75 352L111 411L185.5 384L155 316Z" fill="#AF98CB"/>
<path d="M111 411L75 352L36.7871 310.5L28.5 301.5L69 384L111 411Z" fill="#AF98CB"/>
<path fill-rule="evenodd" clip-rule="evenodd" d="M85.571 243.5C85.6308 243.413 85.6918 243.327 85.7539 243.242L85.571 243.5Z" fill="#AF98CB"/>
<path d="M88 191.5C87.075 202.451 82.6296 206.964 77 209C85.1643 210.465 86.9675 215.132 88 226.5C87.7841 214.69 88.7642 209.36 97 207.5C90.8077 206.51 89.5639 201.577 88 191.5Z" fill="#1F002E"/>
<path d="M179.5 160C177.41 168.485 176.605 173.791 170 175.5C175.337 177.575 176.122 182.03 176.5 191.5C177.357 182.287 178.189 177.627 184 175.5C178.83 172.996 179.125 168.272 179.5 160Z" fill="#1F002E"/>
<path d="M145.5 214.5C143.921 223.326 142.579 227.512 136 228C142.522 229.713 143.521 233.763 144 242.5C144.71 234.493 145.715 230.511 153 228C146.087 227.121 145.946 222.509 145.5 214.5Z" fill="#1F002E"/>
<path d="M88 191.5C87.075 202.451 82.6296 206.964 77 209C85.1643 210.465 86.9675 215.132 88 226.5C87.7841 214.69 88.7642 209.36 97 207.5C90.8077 206.51 89.5639 201.577 88 191.5Z" stroke="#1F002E" stroke-width="3" stroke-linecap="round" stroke-linejoin="round"/>
<path d="M179.5 160C177.41 168.485 176.605 173.791 170 175.5C175.337 177.575 176.122 182.03 176.5 191.5C177.357 182.287 178.189 177.627 184 175.5C178.83 172.996 179.125 168.272 179.5 160Z" stroke="#1F002E" stroke-width="3" stroke-linecap="round" stroke-linejoin="round"/>
<path d="M145.5 214.5C143.921 223.326 142.579 227.512 136 228C142.522 229.713 143.521 233.763 144 242.5C144.71 234.493 145.715 230.511 153 228C146.087 227.121 145.946 222.509 145.5 214.5Z" stroke="#1F002E" stroke-width="3" stroke-linecap="round" stroke-linejoin="round"/>
<path d="M81 240C81.3449 238.67 81.8791 237.508 82.571 236.5C88.9015 227.279 108.436 230.945 117 236.5C135.5 248.5 173 255 173 268.5C173 273.236 148.5 273.5 138.5 265.5C131 252.583 113.5 248 96.5 252.583C85.5 251.5 79.4445 246 81 240Z" fill="#1F002E"/>
<path d="M183 199C202.5 197.5 206 204.174 196.5 205C177.177 206.68 166 206 147 201M83 179C72.5 178 69.125 183 76 185.5C81.5 187.5 88.5 185.5 96.5 187.5M173 268.5C173 255 135.5 248.5 117 236.5C108.436 230.945 88.9015 227.279 82.571 236.5M173 268.5C173 273.236 148.5 273.5 138.5 265.5C131 252.583 113.5 248 96.5 252.583M173 268.5L177.5 213.589M101.5 248L96.5 252.583M89.4996 259L96.5 252.583M86.5 263.5L93 270M97.5 276L92 287M103.5 259L101 269.5L95 272.5M89.4996 291.5L85.5 300.5M89.4996 302.5L100 305L103.5 298M106.5 292.5C109.572 294.645 111.46 295.553 115.5 296M127.5 296L131 289M134.5 282L138.5 273.5M130.5 266.5L124 274.5M109.5 280L105 289M124 283.5L118 292.5M96.5 252.583C85.5 251.5 79.4445 246 81 240C81.3449 238.67 81.8791 237.508 82.571 236.5M82.571 236.5L109 199.24M109 199.24C118.884 202.397 127.495 206.323 139.499 208.5C151.838 210.738 165.054 212.635 177.5 213.589M109 199.24C103.24 197.4 97.0477 195.82 89.4996 195C66.4994 192.5 42.9995 201 34.4994 194C27.0963 187.903 50 171 84.5 171C102 171 108.721 179.571 121 183.5C142 190.22 233.5 176.5 230.999 199C229.429 213.127 205.402 215.728 177.5 213.589M72 345L152 309L182.5 377L108 404M72 345L108 404M72 345L33.7871 303.5M108 404L66 377L25.5 294.5L33.7871 303.5M33.7871 303.5L43.5 293.5C58.5 306 68.5 317.5 73.5 335.5C97.8143 320.981 112.265 313.427 143 303.5M118.5 297.5C120.899 299.343 122.427 299.933 125.5 300" stroke="#1F002E" stroke-width="3" stroke-linecap="round" stroke-linejoin="round"/>
</svg>
