<svg width="244" height="569" viewBox="0 0 244 569" fill="none" xmlns="http://www.w3.org/2000/svg">
<rect x="1" y="1" width="242" height="567" rx="5" fill="#F8FAFC"/>
<rect x="1" y="1" width="242" height="567" rx="5" stroke="#D1CBE1" stroke-width="2"/>
<path d="M96.5 356.5L89 355M79.5 356.5C70.3349 357.536 66.5784 359.958 62 367.5M122 373C127.547 363.658 132.182 361.051 142.5 360M182 355C187.126 356.685 189.257 358.382 191 363.5" stroke="#1F002E" stroke-width="3" stroke-linecap="round" stroke-linejoin="round"/>
<path d="M51 394.499H117L120.5 398.499L125 394.499H191L185 386.499H180.5H123.5L120.5 389.499L117 386.499H61.5H58L51 394.499Z" fill="#1F002E"/>
<path d="M120.5 389.499L123.5 386.499H180.5M120.5 389.499L117 386.499H61.5M120.5 389.499C119 375.5 101.119 373.508 85.5 377C75.2763 379.286 69 383.5 61.5 386.499M120.5 389.499C121.492 380.241 136.25 374.903 153.5 377C162.333 378.074 170.5 383 180.5 386.499M180.5 386.499H185L191 394.499H125L120.5 398.499L117 394.499H51L58 386.499H61.5" stroke="#1F002E" stroke-width="3" stroke-linecap="round" stroke-linejoin="round"/>
<path fill-rule="evenodd" clip-rule="evenodd" d="M167.099 272L167.104 271.837C167.104 271.892 167.103 271.947 167.099 272Z" fill="#AF98CB"/>
<path d="M75.17 241C79.3445 231.444 102.332 236.125 124.5 244.5C144.469 252.044 167.022 266.282 167.104 271.837L168.5 218.263C157.217 217.238 145.452 215.506 134.392 213.5C121.628 211.185 112.7 206.893 102 203.65C94.5348 219.998 81.0673 227.5 75.17 241Z" fill="#AF98CB"/>
<path d="M77.8926 191.5C76.9676 202.451 72.5222 206.964 66.8926 209C75.0568 210.465 76.8601 215.132 77.8926 226.5C77.6767 214.69 78.6567 209.36 86.8926 207.5C80.7002 206.51 79.4564 201.577 77.8926 191.5Z" fill="#1F002E"/>
<path d="M169.393 160C167.303 168.485 166.497 173.791 159.893 175.5C165.23 177.575 166.015 182.03 166.393 191.5C167.249 182.287 168.081 177.627 173.893 175.5C168.723 172.996 169.017 168.272 169.393 160Z" fill="#1F002E"/>
<path d="M135.393 214.5C133.814 223.326 132.472 227.512 125.893 228C132.415 229.713 133.413 233.763 133.893 242.5C134.602 234.493 135.607 230.511 142.893 228C135.979 227.121 135.839 222.509 135.393 214.5Z" fill="#1F002E"/>
<path d="M77.8926 191.5C76.9676 202.451 72.5222 206.964 66.8926 209C75.0568 210.465 76.8601 215.132 77.8926 226.5C77.6767 214.69 78.6567 209.36 86.8926 207.5C80.7002 206.51 79.4564 201.577 77.8926 191.5Z" stroke="#1F002E" stroke-width="3" stroke-linecap="round" stroke-linejoin="round"/>
<path d="M169.393 160C167.303 168.485 166.497 173.791 159.893 175.5C165.23 177.575 166.015 182.03 166.393 191.5C167.249 182.287 168.081 177.627 173.893 175.5C168.723 172.996 169.017 168.272 169.393 160Z" stroke="#1F002E" stroke-width="3" stroke-linecap="round" stroke-linejoin="round"/>
<path d="M135.393 214.5C133.814 223.326 132.472 227.512 125.893 228C132.415 229.713 133.413 233.763 133.893 242.5C134.602 234.493 135.607 230.511 142.893 228C135.979 227.121 135.839 222.509 135.393 214.5Z" stroke="#1F002E" stroke-width="3" stroke-linecap="round" stroke-linejoin="round"/>
<path d="M71.5 297.5L77 302.5L76 310L67.5 318L71.5 297.5Z" fill="#1F002E"/>
<path d="M82 262L88 263.5L83 282.5L73.5652 289.5L82 262Z" fill="#1F002E"/>
<path d="M69.5 239.5C69.5 256.5 88 247.171 110 252C130.5 256.5 145.5 276.5 161 268.5C161.703 268.137 162.056 267.629 162.099 267C162.47 261.565 139.667 247.119 119.5 239.5C97.3316 231.125 74.3445 226.444 70.17 236C69.7309 237.005 69.5 238.168 69.5 239.5Z" fill="#1F002E"/>
<path d="M172.893 199C192.393 197.5 195.893 204.174 186.393 205C167.07 206.68 155.893 206 136.893 201M72.8931 179C62.3931 178 59.0181 183 65.8931 185.5C71.3931 187.5 78.3931 185.5 86.3931 187.5M125 278L106 261L98 263.5M67.5 294L73.5652 289.5M73.5652 289.5L83 282.5L88 263.5L82 262L73.5652 289.5ZM77 302.5L71.5 297.5L67.5 318L76 310L77 302.5ZM77 302.5L82 298.5M85.5 296L95 289.5M90 278L99 271.5M83 303.5L88 308M93 308.5L99 303.5M103.5 298.5L109.5 292M102.5 306L110 308.5L111.5 299.5M116.5 294L122.5 285.5M99 287L104.5 283M70.17 236C74.3445 226.444 97.3316 231.125 119.5 239.5C139.667 247.119 162.47 261.565 162.099 267M70.17 236C69.7309 237.005 69.5 238.168 69.5 239.5C69.5 256.5 88 247.171 110 252C130.5 256.5 145.5 276.5 161 268.5C161.703 268.137 162.056 267.629 162.099 267M70.17 236C76.0673 222.5 89.5348 214.998 97 198.65M97 198.65C107.7 201.893 116.628 206.185 129.392 208.5C140.452 210.506 152.217 212.238 163.5 213.263M97 198.65C91.7721 197.066 86.121 195.731 79.3927 195C56.3925 192.5 32.8925 201 24.3924 194C16.9894 187.903 39.893 171 74.393 171C91.893 171 98.6139 179.571 110.893 183.5C131.893 190.22 223.393 176.5 220.892 199C219.25 213.781 193.025 215.944 163.5 213.263M162.099 267L163.5 213.263" stroke="#1F002E" stroke-width="3" stroke-linecap="round" stroke-linejoin="round"/>
</svg>
