<svg width="332" height="201" viewBox="0 0 332 201" fill="none" xmlns="http://www.w3.org/2000/svg">
<g clip-path="url(#clip0_1408_5118)">
<path d="M151.5 -19.5L156 102L166.5 -19.5H151.5Z" fill="#EEE1F3"/>
<path d="M119 -19.5L156 102L135.5 -19.5H119Z" fill="#EEE1F3"/>
<path d="M82.5 -17.5L156 102L100.5 -19.5L82.5 -17.5Z" fill="#EEE1F3"/>
<path d="M17.5 -30L156 102L50 -27.5L17.5 -30Z" fill="#EEE1F3"/>
<path d="M-19 5.5L156 102L-3 -14L-19 5.5Z" fill="#EEE1F3"/>
<path d="M-19 58.5L156 102L-16.5 33L-19 58.5Z" fill="#EEE1F3"/>
<path d="M-18.5 103.5L156 102L-18.5 81.5V103.5Z" fill="#EEE1F3"/>
<path d="M-20.5 149.5L156 102L-22 125L-20.5 149.5Z" fill="#EEE1F3"/>
<path d="M-22 203.5L156 102L-20.5 175L-22 203.5Z" fill="#EEE1F3"/>
<path d="M21.5 232L156 102L-0.5 219.5L21.5 232Z" fill="#EEE1F3"/>
<path d="M77.5 232L156 102L56.5 228.5L77.5 232Z" fill="#EEE1F3"/>
<path d="M117.5 230L156 102L98.5 230H117.5Z" fill="#EEE1F3"/>
<path d="M151 228.5L156 102L135 228.5H151Z" fill="#EEE1F3"/>
<path d="M184.5 230L156 102L167.5 230H184.5Z" fill="#EEE1F3"/>
<path d="M216.5 224.5L156 102L198 224.5H216.5Z" fill="#EEE1F3"/>
<path d="M250 212.5L156 102L228.5 212.5H250Z" fill="#EEE1F3"/>
<path d="M302 207L156 102L278 217L302 207Z" fill="#EEE1F3"/>
<path d="M343 176L156 102L331.5 198L343 176Z" fill="#EEE1F3"/>
<path d="M333.5 125L156 102L329 147.5L333.5 125Z" fill="#EEE1F3"/>
<path d="M339 81.5L156 102L333.5 103.5L339 81.5Z" fill="#EEE1F3"/>
<path d="M347 29.5L156 102L353.5 52L347 29.5Z" fill="#EEE1F3"/>
<path d="M315.5 -12L156 102L334.5 5.5L315.5 -12Z" fill="#EEE1F3"/>
<path d="M252.5 -9.5L156 102L278 -9.5H252.5Z" fill="#EEE1F3"/>
<path d="M215 -14L156 102L234 -14H215Z" fill="#EEE1F3"/>
<path d="M182.5 -19.5L156 102L198 -19.5H182.5Z" fill="#EEE1F3"/>
<path d="M93.2334 140.5C94.2164 146.887 94.8442 150.443 99.7334 155.5C95.2334 158.5 95.4193 163.725 94.2334 171C93.373 164.459 91.7334 160 86.7334 155.5C91.4263 151.4 92.2031 147.586 93.2334 140.5Z" fill="#F8FAFC"/>
<path d="M191.999 18.5C192.982 24.8873 192.499 26 196.999 28.5C191.999 30.5 192.999 31.5 191.999 38C191.499 32 190.999 30 186.999 28.5C191.499 26.5 190.969 25.5858 191.999 18.5Z" fill="#F8FAFC"/>
<path d="M135.999 35C136.982 41.3873 137.499 42.5 141.999 45C136.999 47 136.999 49.5 135.999 56C135.499 50 133.499 46.5 129.499 45C133.999 43 134.969 42.0858 135.999 35Z" fill="#F8FAFC"/>
<path d="M190.752 74.0442C183.752 73.5287 177.756 77.5438 176.254 85.0439C175.073 90.9382 177.947 99.4116 186.25 100.544C197.25 102.044 204.75 86.5439 199.551 78.0439C197.298 75.6852 194.266 74.303 190.752 74.0442Z" fill="#F8FAFC"/>
<path d="M138 73.5003C146.225 72.7532 152.5 80 152.5 86.9998C152.5 91.9996 146.5 100.5 136.5 99.0003C127 97.5757 124 80 132.48 75C134.42 74.1288 136.326 73.6523 138 73.5003Z" fill="#F8FAFC"/>
<path d="M126 66.1499C110.188 71.2894 96.1785 78.5952 86.4995 87.4998C82.5551 96 84.0001 110.5 102.327 107C102.371 89.6782 112.592 76.9162 126 66.1499Z" fill="#F8FAFC"/>
<path d="M247 88.9998C239.751 72.5589 222.252 63.2436 201 59.5954C199.354 59.313 197.687 59.0645 196 58.8493C209.5 70 219.5 87.4998 218 112.5C217.902 114.119 217.673 115.793 217.314 117.5C242.5 115 249 97.5 247 88.9998Z" fill="#F8FAFC"/>
<path d="M157.5 28.5V44.5H174V28.5H157.5Z" fill="#F8FAFC"/>
<path d="M94 184.002H118.5H154.5H171.5H211.5H222.5L207.5 203.002H110.5L94 184.002Z" fill="#F8FAFC"/>
<path fill-rule="evenodd" clip-rule="evenodd" d="M86.6985 87.0709L86.4995 87.4998C96.1785 78.5952 110.188 71.2894 126 66.1499C112.592 76.9162 102.371 89.6782 102.327 107C102.321 109.564 102.537 112.228 103 115C107.588 142.525 126.048 155.689 160 157.5C193.469 159.285 213.342 136.355 217.314 117.5C217.673 115.793 217.902 114.119 218 112.5C219.5 87.4998 209.5 70 196 58.8493C197.687 59.0645 199.354 59.313 201 59.5954C222.252 63.2436 239.751 72.5589 247 88.9998L238 61.1356C225.157 60.2121 217.991 54.0887 205.209 41C204.616 37.1883 204.349 33.3687 204.5 28.5L219.5 15.5C207.003 11.589 202.212 7.67082 196.5 -1.5C163.79 10.3896 145.972 18.3853 115.5 35.5C113.176 44.9091 111.414 50.4179 106.5 61.1356C105.083 61.5768 103.595 62.0284 102 62.5C93.9768 71.3852 91.3229 77.1048 86.6985 87.0709ZM196.999 28.5C192.499 26 192.982 24.8873 191.999 18.5C190.969 25.5858 191.499 26.5 186.999 28.5C190.999 30 191.499 32 191.999 38C192.999 31.5 191.999 30.5 196.999 28.5ZM141.999 45C137.499 42.5 136.982 41.3873 135.999 35C134.969 42.0858 133.999 43 129.499 45C133.499 46.5 135.499 50 135.999 56C136.999 49.5 136.999 47 141.999 45ZM176.254 85.0439C177.756 77.5438 183.752 73.5287 190.752 74.0442C194.266 74.303 197.298 75.6852 199.551 78.0439C204.75 86.5439 197.25 102.044 186.25 100.544C177.947 99.4116 175.073 90.9382 176.254 85.0439ZM152.5 86.9998C152.5 80 146.225 72.7532 138 73.5003C136.326 73.6523 134.42 74.1288 132.48 75C124 80 127 97.5757 136.5 99.0003C146.5 100.5 152.5 91.9996 152.5 86.9998ZM180.5 21.5H150V67.5H180.5V21.5Z" fill="#F8FAFC"/>
<path d="M151 162.002C140.769 161.362 129.374 162.066 128.5 166.001C127.5 170.501 142.936 172.984 154.5 172.002V184.002H171.5V172.501C186.745 173.529 199 171 200 167.001C200.087 166.652 200.115 166.319 200.087 166C199.752 162.135 191.277 160.501 182.5 160.501L151 162.002Z" fill="#F8FAFC"/>
<path d="M200 167.001C199 171 186.745 173.529 171.5 172.501V184.002H211.5C208.031 175.602 201.5 171 200.087 166C200.115 166.319 200.087 166.652 200 167.001Z" fill="#F8FAFC"/>
<path d="M154.5 172.002C142.936 172.984 127.5 170.501 128.5 166.001C126.5 171.5 121.432 176.086 118.5 184.002H154.5V172.002Z" fill="#F8FAFC"/>
<path fill-rule="evenodd" clip-rule="evenodd" d="M150 21.5H180.5V67.5H150V21.5ZM157.5 44.5V28.5H174V44.5H157.5Z" fill="#F8FAFC"/>
<path d="M194.999 21.5C195.982 27.8873 195.499 29 199.999 31.5C194.999 33.5 195.999 34.5 194.999 41C194.499 35 193.999 33 189.999 31.5C194.499 29.5 193.968 28.5858 194.999 21.5Z" fill="#AF98CB"/>
<path d="M138.999 38C139.982 44.3873 140.499 45.5 144.999 48C139.999 50 139.999 52.5 138.999 59C138.499 53 136.499 49.5 132.499 48C136.999 46 137.968 45.0858 138.999 38Z" fill="#AF98CB"/>
<path d="M128.999 69.1499C113.187 74.2894 99.1781 81.5952 89.4991 90.4998C85.5547 99 86.9998 113.5 105.327 110C105.371 92.6782 115.591 79.9162 128.999 69.1499Z" fill="#AF98CB"/>
<path d="M249.999 91.9998C242.751 75.5589 225.252 66.2436 203.999 62.5954C202.354 62.313 200.686 62.0645 198.999 61.8493C212.499 73 222.499 90.4998 220.999 115.5C220.902 117.119 220.673 118.793 220.313 120.5C245.499 118 251.999 100.5 249.999 91.9998Z" fill="#AF98CB"/>
<path d="M96.9996 187.002H121.5H157.5H174.5H214.5H225.5L210.5 206.002H113.5L96.9996 187.002Z" fill="#AF98CB"/>
<path fill-rule="evenodd" clip-rule="evenodd" d="M89.6981 90.0709L89.4991 90.4998C99.1781 81.5952 113.187 74.2894 128.999 69.1499C134.641 67.316 140.513 65.7578 146.5 64.5013C148.653 64.0493 150.822 63.6363 153 63.2635V24.5H183.5V60.7948C185.515 60.821 187.516 60.8874 189.5 60.995C192.72 61.1698 195.892 61.4531 198.999 61.8493C200.686 62.0645 202.354 62.313 203.999 62.5954C225.252 66.2436 242.751 75.5589 249.999 91.9998L240.999 64.1356C228.157 63.2121 220.991 57.0887 208.209 44C207.616 40.1883 207.348 36.3687 207.499 31.5L222.499 18.5C210.002 14.589 205.212 10.6708 199.499 1.5C166.789 13.3896 148.972 21.3853 118.499 38.5C116.176 47.9091 114.414 53.4179 109.499 64.1356C108.082 64.5768 106.595 65.0284 104.999 65.5C96.9764 74.3852 94.3225 80.1048 89.6981 90.0709ZM199.999 31.5C195.499 29 195.982 27.8873 194.999 21.5C193.968 28.5858 194.499 29.5 189.999 31.5C193.999 33 194.499 35 194.999 41C195.999 34.5 194.999 33.5 199.999 31.5ZM144.999 48C140.499 45.5 139.982 44.3873 138.999 38C137.968 45.0858 136.999 46 132.499 48C136.499 49.5 138.499 53 138.999 59C139.999 52.5 139.999 50 144.999 48Z" fill="#AF98CB"/>
<path d="M203 170.001C202 174 189.745 176.529 174.5 175.501V187.002H214.5C211.03 178.602 204.5 174 203.087 169C203.115 169.319 203.087 169.652 203 170.001Z" fill="#AF98CB"/>
<path d="M157.5 175.002C145.935 175.984 130.5 173.501 131.5 169.001C129.5 174.5 124.432 179.086 121.5 187.002H157.5V175.002Z" fill="#AF98CB"/>
<path d="M96.233 143.5C97.216 149.887 97.8438 153.443 102.733 158.5C98.233 161.5 98.4189 166.725 97.233 174C96.3727 167.459 94.733 163 89.733 158.5C94.4259 154.4 95.2027 150.586 96.233 143.5Z" fill="#AF98CB"/>
<path d="M93.2334 140.5C94.2164 146.887 94.8442 150.443 99.7334 155.5C95.2334 158.5 95.4193 163.725 94.2334 171C93.373 164.459 91.7334 160 86.7334 155.5C91.4263 151.4 92.2031 147.586 93.2334 140.5Z" fill="#1F002E"/>
<path d="M191.999 18.5C192.982 24.8873 192.499 26 196.999 28.5C191.999 30.5 192.999 31.5 191.999 38C191.499 32 190.999 30 186.999 28.5C191.499 26.5 190.969 25.5858 191.999 18.5Z" fill="#1F002E"/>
<path d="M135.999 35C136.982 41.3873 137.499 42.5 141.999 45C136.999 47 136.999 49.5 135.999 56C135.499 50 133.499 46.5 129.499 45C133.999 43 134.969 42.0858 135.999 35Z" fill="#1F002E"/>
<path d="M190.752 74.0442C183.752 73.5287 177.756 77.5438 176.254 85.0439C175.073 90.9382 177.947 99.4116 186.25 100.544C197.25 102.044 204.75 86.5439 199.551 78.0439C197.298 75.6852 194.266 74.303 190.752 74.0442Z" fill="#1F002E"/>
<path d="M138 73.5003C146.225 72.7532 152.5 80 152.5 86.9998C152.5 91.9996 146.5 100.5 136.5 99.0003C127 97.5757 124 80 132.48 75C134.42 74.1288 136.326 73.6523 138 73.5003Z" fill="#1F002E"/>
<path d="M126 66.1499C110.188 71.2894 96.1785 78.5952 86.4995 87.4998C82.5551 96 84.0001 110.5 102.327 107C102.371 89.6782 112.592 76.9162 126 66.1499Z" fill="#1F002E"/>
<path d="M247 88.9998C239.751 72.5589 222.252 63.2436 201 59.5954C199.354 59.313 197.687 59.0645 196 58.8493C209.5 70 219.5 87.4998 218 112.5C217.902 114.119 217.673 115.793 217.314 117.5C242.5 115 249 97.5 247 88.9998Z" fill="#1F002E"/>
<path d="M157.5 28.5V44.5H174V28.5H157.5Z" fill="#1F002E"/>
<path d="M94 184.002H118.5H154.5H171.5H211.5H222.5L207.5 203.002H110.5L94 184.002Z" fill="#1F002E"/>
<path d="M162.502 118C165.502 115.5 166.334 111.5 163 109.5C160.5 108 155.53 109.569 153 112.001C151.162 113.768 148.5 118 153 120M204.75 93.0439C205.03 87.1563 202.426 81.0547 199.551 78.0439M199.551 78.0439C197.298 75.6852 194.266 74.303 190.752 74.0442C183.752 73.5287 177.756 77.5438 176.254 85.0439C175.073 90.9382 177.947 99.4116 186.25 100.544C197.25 102.044 204.75 86.5439 199.551 78.0439ZM121 87.9998C123.435 81.0438 128.047 76.991 132.48 75M132.48 75C134.42 74.1288 136.326 73.6523 138 73.5003C146.225 72.7532 152.5 80 152.5 86.9998C152.5 91.9996 146.5 100.5 136.5 99.0003C127 97.5757 124 80 132.48 75ZM86.4995 87.4998C91.2483 77.2672 93.8624 71.5119 102 62.5C103.595 62.0284 105.083 61.5768 106.5 61.1356M86.4995 87.4998C96.1785 78.5952 110.188 71.2894 126 66.1499M86.4995 87.4998C82.5551 96 84.0001 110.5 102.327 107M247 88.9998L238 61.1356C225.157 60.2121 217.991 54.0887 205.209 41M247 88.9998C239.751 72.5589 222.252 63.2436 201 59.5954C199.354 59.313 197.687 59.0645 196 58.8493M247 88.9998C249 97.5 242.5 115 217.314 117.5M127.5 54C119.07 56.9247 113.699 58.8941 106.5 61.1356M106.5 61.1356C111.414 50.4179 113.176 44.9091 115.5 35.5C145.972 18.3853 163.79 10.3896 196.5 -1.5C202.212 7.67082 207.003 11.589 219.5 15.5L204.5 28.5C204.349 33.3687 204.616 37.1883 205.209 41M208 54C206.789 48.9002 205.824 44.9544 205.209 41M126 66.1499C112.592 76.9162 102.371 89.6782 102.327 107M126 66.1499C131.642 64.316 137.514 62.7578 143.5 61.5013M196 58.8493C209.5 70 219.5 87.4998 218 112.5C217.902 114.119 217.673 115.793 217.314 117.5M196 58.8493C192.893 58.4531 189.72 58.1698 186.5 57.995M217.314 117.5C213.342 136.355 193.469 159.285 160 157.5C126.048 155.689 107.588 142.525 103 115C102.537 112.228 102.321 109.564 102.327 107M151 162.002C140.769 161.362 129.374 162.066 128.5 166.001M128.5 166.001C127.5 170.501 142.936 172.984 154.5 172.002V184.002M128.5 166.001C126.5 171.5 121.432 176.086 118.5 184.002M154.5 184.002H118.5M154.5 184.002H171.5M118.5 184.002H94L110.5 203.002H207.5L222.5 184.002H211.5M182.5 160.501C191.277 160.501 199.752 162.135 200.087 166M171.5 184.002V172.501C186.745 173.529 199 171 200 167.001C200.087 166.652 200.115 166.319 200.087 166M171.5 184.002H211.5M200.087 166C201.5 171 208.031 175.602 211.5 184.002M209.499 156.5C216.492 151.798 217.871 147.286 219.999 139C220.072 147.735 219.999 153.5 224.999 158.5C218.999 160.5 217.999 164 215.499 171C215.579 162.506 213.226 159.68 209.499 156.5ZM93.2334 140.5C94.2164 146.887 94.8442 150.443 99.7334 155.5C95.2334 158.5 95.4193 163.725 94.2334 171C93.373 164.459 91.7334 160 86.7334 155.5C91.4263 151.4 92.2031 147.586 93.2334 140.5ZM191.999 18.5C192.982 24.8873 192.499 26 196.999 28.5C191.999 30.5 192.999 31.5 191.999 38C191.499 32 190.999 30 186.999 28.5C191.499 26.5 190.969 25.5858 191.999 18.5ZM135.999 35C136.982 41.3873 137.499 42.5 141.999 45C136.999 47 136.999 49.5 135.999 56C135.499 50 133.499 46.5 129.499 45C133.999 43 134.969 42.0858 135.999 35ZM150 21.5H180.5V67.5H150V21.5ZM157.5 28.5V44.5H174V28.5H157.5Z" stroke="#1F002E" stroke-width="3" stroke-linecap="round" stroke-linejoin="round"/>
<path d="M259 104.692C260.514 115.275 259.77 117.118 266.699 121.26C259 124.574 260.54 126.231 259 137C258.23 127.059 257.46 123.746 251.301 121.26C258.23 117.947 257.413 116.432 259 104.692Z" fill="#AF98CB"/>
<path d="M62.6991 53C64.2128 63.5825 63.469 65.426 70.3982 69.568C62.6991 72.8817 64.2389 74.5385 62.6991 85.3077C61.9292 75.3669 61.1593 72.0533 55 69.568C61.9292 66.2544 61.1126 64.7398 62.6991 53Z" fill="#AF98CB"/>
</g>
<rect x="1" y="1" width="330" height="199" rx="11" stroke="#D1CBE1" stroke-width="2"/>
<defs>
<clipPath id="clip0_1408_5118">
<rect width="332" height="201" rx="12" fill="white"/>
</clipPath>
</defs>
</svg>
