<svg width="40" height="40" viewBox="0 0 40 40" fill="none" xmlns="http://www.w3.org/2000/svg">
<path d="M23.5402 5.20524C22.39 4.92831 21.1892 4.78161 19.954 4.78161C16.6519 4.78161 13.5947 5.83015 11.0971 7.61243L23.5402 14.8049V5.20524Z" fill="#F8FAFC"/>
<path fill-rule="evenodd" clip-rule="evenodd" d="M26.2988 20.3785L34.5577 15.5899C33.2784 11.3921 30.2388 7.96166 26.2988 6.15864V20.3785ZM22.7372 25.6324L35.1353 18.4438C35.1902 18.9704 35.2184 19.5049 35.2184 20.046C35.2184 24.0813 33.6525 27.7509 31.0953 30.4803L22.7372 25.6324ZM28.9149 32.4047L16.4921 25.1992V34.9161C17.6044 35.174 18.7633 35.3103 19.954 35.3103C23.3021 35.3103 26.3984 34.2324 28.9149 32.4047ZM13.7335 19.5448V33.9895C9.70058 32.1876 6.59271 28.6874 5.31908 24.3982L13.7335 19.5448ZM4.76138 21.5352L17.2296 14.3436L8.89422 9.5254C6.28881 12.2635 4.68966 15.968 4.68966 20.046C4.68966 20.5484 4.71393 21.0452 4.76138 21.5352Z" fill="#F8FAFC"/>
<path fill-rule="evenodd" clip-rule="evenodd" d="M23.5402 5.20524C22.39 4.92831 21.1892 4.78161 19.954 4.78161C16.6519 4.78161 13.5947 5.83015 11.0971 7.61243L23.5402 14.8049V5.20524ZM8.89422 9.5254C6.28881 12.2635 4.68966 15.968 4.68966 20.046C4.68966 20.5484 4.71393 21.0452 4.76138 21.5352L17.2296 14.3436L8.89422 9.5254ZM5.31908 24.3982C6.59271 28.6874 9.70058 32.1876 13.7335 33.9895V19.5448L5.31908 24.3982ZM16.4921 34.9161C17.6044 35.174 18.7633 35.3103 19.954 35.3103C23.3021 35.3103 26.3984 34.2324 28.9149 32.4047L16.4921 25.1992V34.9161ZM31.0953 30.4803C33.6525 27.7509 35.2184 24.0813 35.2184 20.046C35.2184 19.5049 35.1902 18.9704 35.1353 18.4438L22.7372 25.6324L31.0953 30.4803ZM34.5577 15.5899C33.2784 11.3921 30.2388 7.96166 26.2988 6.15864V20.3785L34.5577 15.5899Z" fill="#F8FAFC"/>
<path fill-rule="evenodd" clip-rule="evenodd" d="M20 40C31.0457 40 40 31.0457 40 20C40 8.9543 31.0457 0 20 0C8.9543 0 0 8.9543 0 20C0 31.0457 8.9543 40 20 40ZM19.954 4.78161C21.1892 4.78161 22.39 4.92831 23.5402 5.20524V14.8049L11.0971 7.61243C13.5947 5.83015 16.6519 4.78161 19.954 4.78161ZM4.68966 20.046C4.68966 15.968 6.28881 12.2635 8.89422 9.5254L17.2296 14.3436L4.76138 21.5352C4.71393 21.0452 4.68966 20.5484 4.68966 20.046ZM13.7335 33.9895C9.70058 32.1876 6.59271 28.6874 5.31908 24.3982L13.7335 19.5448V33.9895ZM19.954 35.3103C18.7633 35.3103 17.6044 35.174 16.4921 34.9161V25.1992L28.9149 32.4047C26.3984 34.2324 23.3021 35.3103 19.954 35.3103ZM35.2184 20.046C35.2184 24.0813 33.6525 27.7509 31.0953 30.4803L22.7372 25.6324L35.1353 18.4438C35.1902 18.9704 35.2184 19.5049 35.2184 20.046ZM26.2988 6.15864C30.2388 7.96166 33.2784 11.3921 34.5577 15.5899L26.2988 20.3785V6.15864Z" fill="#E99700"/>
</svg>
