<svg width="40" height="40" viewBox="0 0 40 40" fill="none" xmlns="http://www.w3.org/2000/svg">
<path fill-rule="evenodd" clip-rule="evenodd" d="M14.6338 10.3895C14.6338 7.49549 16.9884 5.14943 19.8929 5.14943C22.7974 5.14943 25.1519 7.49549 25.1519 10.3895C25.1519 12.1473 24.2833 13.7029 22.9505 14.6534V17.9032C28.3588 18.6467 32.3678 21.3569 32.3678 24.5865V28.9305C29.5981 32.7935 25.07 35.3103 19.954 35.3103C14.838 35.3103 10.3099 32.7935 7.54023 28.9305V24.5865C7.54023 21.3813 11.4889 18.6876 16.8353 17.9203V14.6534C15.5024 13.7029 14.6338 12.1473 14.6338 10.3895ZM19.8929 24.8911C20.7034 24.8911 21.3605 24.2243 21.3605 23.4017V15.4228C20.8947 15.5574 20.4022 15.6296 19.8929 15.6296C19.3835 15.6296 18.891 15.5574 18.4252 15.4228V23.4017C18.4252 24.2243 19.0823 24.8911 19.8929 24.8911ZM19.954 29.4C25.0538 29.4 29.1879 27.2995 29.1879 24.7083C29.1879 22.6501 26.5794 20.9014 22.9505 20.2692V22.4467C24.7066 22.9016 25.8857 23.7441 25.8857 24.7083C25.8857 26.1553 23.23 27.3284 19.954 27.3284C16.678 27.3284 14.0223 26.1553 14.0223 24.7083C14.0223 23.7667 15.1469 22.9411 16.8353 22.4792V20.291C13.2702 20.9409 10.7201 22.6733 10.7201 24.7083C10.7201 27.2995 14.8543 29.4 19.954 29.4Z" fill="#F8FAFC"/>
<path fill-rule="evenodd" clip-rule="evenodd" d="M21.3605 23.4017C21.3605 24.2243 20.7034 24.8911 19.8929 24.8911C19.0823 24.8911 18.4252 24.2243 18.4252 23.4017V15.4228C18.891 15.5574 19.3835 15.6296 19.8929 15.6296C20.4022 15.6296 20.8947 15.5574 21.3605 15.4228V23.4017Z" fill="#5BAD5E"/>
<path fill-rule="evenodd" clip-rule="evenodd" d="M20 40C31.0457 40 40 31.0457 40 20C40 8.9543 31.0457 0 20 0C8.9543 0 0 8.9543 0 20C0 31.0457 8.9543 40 20 40ZM19.8929 5.14943C16.9884 5.14943 14.6338 7.49549 14.6338 10.3895C14.6338 12.1473 15.5024 13.7029 16.8353 14.6534V17.9203C11.4889 18.6876 7.54023 21.3813 7.54023 24.5865V28.9305C10.3099 32.7935 14.838 35.3103 19.954 35.3103C25.07 35.3103 29.5981 32.7935 32.3678 28.9305V24.5865C32.3678 21.3569 28.3588 18.6467 22.9505 17.9032V14.6534C24.2833 13.7029 25.1519 12.1473 25.1519 10.3895C25.1519 7.49549 22.7974 5.14943 19.8929 5.14943Z" fill="#5BAD5E"/>
<path d="M29.1879 24.7083C29.1879 27.2995 25.0538 29.4 19.954 29.4C14.8543 29.4 10.7201 27.2995 10.7201 24.7083C10.7201 22.6733 13.2702 20.9409 16.8353 20.291V22.4792C15.1469 22.9411 14.0223 23.7667 14.0223 24.7083C14.0223 26.1553 16.678 27.3284 19.954 27.3284C23.23 27.3284 25.8857 26.1553 25.8857 24.7083C25.8857 23.7441 24.7066 22.9016 22.9505 22.4467V20.2692C26.5794 20.9014 29.1879 22.6501 29.1879 24.7083Z" fill="#5BAD5E"/>
</svg>
