<svg width="32" height="33" viewBox="0 0 32 33" fill="none" xmlns="http://www.w3.org/2000/svg">
  <path fill-rule="evenodd" clip-rule="evenodd"
    d="M2.43145 16.8768C2.14774 16.7444 2.14774 16.341 2.43145 16.2085L8.66078 13.3013L7.23152 8.64628C7.1447 8.36351 7.40946 8.09876 7.69223 8.18558L12.5192 9.66764L15.6232 3.01678C15.7556 2.73307 16.159 2.73307 16.2915 3.01678L19.3896 9.65526L24.1764 8.18558C24.4591 8.09876 24.7239 8.36351 24.6371 8.64628L23.2136 13.2825L29.4832 16.2085C29.7669 16.341 29.7669 16.7444 29.4832 16.8768L23.0279 19.8895L24.6371 25.1304C24.7239 25.4132 24.4591 25.6779 24.1764 25.5911L19.1074 24.0348L16.2915 30.0686C16.159 30.3523 15.7556 30.3523 15.6232 30.0686L12.8015 24.0224L7.69223 25.5911C7.40946 25.6779 7.1447 25.4132 7.23152 25.1304L8.84645 19.8707L2.43145 16.8768ZM17.3211 15.2772L16.2454 12.9722C16.113 12.6885 15.7095 12.6885 15.5771 12.9722L14.5014 15.2772C14.4647 15.3557 14.4017 15.4188 14.3232 15.4554L12.0182 16.5312C11.7345 16.6636 11.7345 17.067 12.0182 17.1994L14.3232 18.2752C14.4017 18.3118 14.4647 18.3749 14.5014 18.4534L15.5771 20.7584C15.7095 21.0421 16.113 21.0421 16.2454 20.7584L17.3211 18.4534C17.3577 18.3749 17.4208 18.3118 17.4993 18.2752L19.8043 17.1994C20.088 17.067 20.088 16.6636 19.8043 16.5312L17.4993 15.4554C17.4208 15.4188 17.3577 15.3557 17.3211 15.2772Z"
    fill="#1F002E" />
  <path
    d="M16.2454 12.9722L17.3211 15.2772C17.3577 15.3557 17.4208 15.4188 17.4993 15.4554L19.8043 16.5312C20.088 16.6636 20.088 17.067 19.8043 17.1994L17.4993 18.2752C17.4208 18.3118 17.3577 18.3749 17.3211 18.4534L16.2454 20.7584C16.113 21.0421 15.7095 21.0421 15.5771 20.7584L14.5014 18.4534C14.4647 18.3749 14.4017 18.3118 14.3232 18.2752L12.0182 17.1994C11.7345 17.067 11.7345 16.6636 12.0182 16.5312L14.3232 15.4554C14.4017 15.4188 14.4647 15.3557 14.5014 15.2772L15.5771 12.9722C15.7095 12.6885 16.113 12.6885 16.2454 12.9722Z"
    fill="#F8FAFC" />
  <path fill-rule="evenodd" clip-rule="evenodd"
    d="M32 16.5C32 25.3366 24.8366 32.5 16 32.5C7.16344 32.5 0 25.3366 0 16.5C0 7.66344 7.16344 0.5 16 0.5C24.8366 0.5 32 7.66344 32 16.5ZM2.43145 16.2085C2.14774 16.341 2.14774 16.7444 2.43145 16.8768L8.84645 19.8707L7.23152 25.1304C7.1447 25.4132 7.40946 25.6779 7.69223 25.5911L12.8015 24.0224L15.6232 30.0686C15.7556 30.3523 16.159 30.3523 16.2915 30.0686L19.1074 24.0348L24.1764 25.5911C24.4591 25.6779 24.7239 25.4132 24.6371 25.1304L23.0279 19.8895L29.4832 16.8768C29.7669 16.7444 29.7669 16.341 29.4832 16.2085L23.2136 13.2825L24.6371 8.64628C24.7239 8.36351 24.4591 8.09876 24.1764 8.18558L19.3896 9.65526L16.2915 3.01678C16.159 2.73307 15.7556 2.73307 15.6232 3.01678L12.5192 9.66764L7.69223 8.18558C7.40946 8.09876 7.1447 8.36351 7.23152 8.64628L8.66078 13.3013L2.43145 16.2085Z"
    fill="#F8FAFC" />
</svg>
