<svg width="332" height="201" viewBox="0 0 332 201" fill="none" xmlns="http://www.w3.org/2000/svg">
<g clip-path="url(#clip0_1429_683)">
<path d="M218.5 217.5L254.5 179L203.5 172.389L200.5 172L186 188.173L161.5 215.5L218.5 217.5Z" fill="#AF98CB"/>
<path d="M285.5 164.5L254.5 179L218.5 217.5L244 215.5L285.5 164.5Z" fill="#AF98CB"/>
<path d="M136.499 177.5C128.999 176.5 124.5 174.5 123 171C122.759 170.438 122.969 169.94 123.532 169.5C116 173 108.519 171.346 99.5 176.5C92.5 180.5 86.5 198 73 212.5L128.999 213.5L135.353 183L136.499 177.5Z" fill="#AF98CB"/>
<path d="M169 173C167.276 175.068 164.043 176.121 158.999 176.5L159.5 183.515L161.499 211.5L161.5 215.5L186 188.173C180 182 170.19 176.5 169.301 172C169.368 172.336 169.274 172.671 169 173Z" fill="#AF98CB"/>
<path d="M74.5 85.3865C63.7473 85.8441 53.2685 89.0824 56.0009 94.0001C58.1572 97.881 68.9603 100.367 84 101.94C97.133 103.314 113.497 103.991 130.154 104.291C133.381 104.349 136.619 104.394 139.846 104.426C145.123 104.479 150.373 104.5 155.502 104.5C157.722 104.5 159.91 104.5 162.065 104.499C171.655 104.496 180.606 104.481 188.87 104.415C196.738 104.353 203.983 104.244 210.563 104.054C211.473 104.028 212.37 104.001 213.254 103.971C216.512 103.863 219.596 103.733 222.5 103.576C240.547 102.603 251.659 100.604 254.5 96.5C257.341 92.3965 250.394 89.1841 241 87.5654C240.337 80.0131 239.048 76.0864 235.5 69.5C229.177 68.9654 224.567 68.8552 220 69.3666C218.212 58.4945 216.322 52.847 212.5 43C195.779 27.4372 186.197 19.7252 169 6.5C136.853 -2.51117 117.544 -5.61623 82 -9.5C64.9523 1.86248 59.1117 11.0639 52 30L52.0894 29.8854C57.0924 23.4693 59.9252 19.8363 66.5 16.5C79.5852 35.8547 85.6372 47.3621 89 71.6765C84.4303 72.6068 80.5883 73.8066 76 75.5C75.0117 79.0896 74.5453 81.1629 74.5 85.3865Z" fill="#AF98CB"/>
<path d="M133.499 174.5C125.999 173.5 121.5 171.5 120 168C119.759 167.438 119.969 166.94 120.532 166.5C123.47 164.204 136.012 163.5 144 163.5C154.684 163.5 165.763 166.274 166.301 169C166.368 169.336 166.274 169.671 166 170C164.276 172.068 161.043 173.121 155.999 173.5L156.5 180.515C146.884 184.424 141.607 183.927 132.353 180L133.499 174.5Z" fill="#1F002E"/>
<path d="M140 122C150.5 127.5 158 121.5 160.5 114.5C162.204 109.73 161.29 105.218 159.065 101.499C156.91 101.5 154.722 101.5 152.502 101.5C147.373 101.5 142.123 101.479 136.846 101.426C132.747 109.133 135.403 119.592 140 122Z" fill="#1F002E"/>
<path d="M184 105.5C182.032 112.5 181.5 124 195.999 123.5C201.416 123.314 209.61 111.634 207.563 101.054C200.983 101.244 193.738 101.353 185.87 101.415C185.033 102.713 184.395 104.096 184 105.5Z" fill="#1F002E"/>
<path d="M161.5 140C166.662 142.306 172.5 142 176 139.5M212 110.5C212.5 106.5 211.646 104.28 210.254 100.971M124.5 107.5C125.152 105.218 126.049 103.137 127.154 101.291M79 82.5C76.7448 82.3196 73.8666 82.2857 71.5 82.3865M71.5 82.3865C60.7473 82.8441 50.2685 86.0824 53.0009 91.0001C55.1572 94.881 65.9603 97.3673 81 98.9402M71.5 82.3865C71.5453 78.1629 72.0117 76.0896 73 72.5C77.5883 70.8066 81.4303 69.6068 86 68.6765M103 66.5C95.694 67.107 90.4949 67.7614 86 68.6765M86 68.6765C82.6372 44.3621 76.5852 32.8547 63.5 13.5C56.9252 16.8363 54.0924 20.4693 49.0894 26.8854L49 27C56.1117 8.06392 61.9523 -1.13752 79 -12.5C114.544 -8.61623 133.853 -5.51117 166 3.5C183.197 16.7252 192.779 24.4372 209.5 40C213.322 49.847 215.212 55.4945 217 66.3666M238 84.5654C247.394 86.1841 254.341 89.3965 251.5 93.5C248.659 97.6039 237.547 99.6029 219.5 100.576M238 84.5654C232.514 83.62 226.193 83.2183 220.5 83.5M238 84.5654C237.337 77.0131 236.048 73.0864 232.5 66.5C226.177 65.9654 221.567 65.8552 217 66.3666M206 68.6765C210.122 67.4948 213.549 66.7532 217 66.3666M81 98.9402C81 121 95 137.506 108.5 146.5C122 155.494 155.654 165.347 186.5 151C206 141.93 219.5 119 219.5 100.576M81 98.9402C94.133 100.314 110.497 100.991 127.154 101.291M219.5 100.576C216.596 100.733 213.512 100.863 210.254 100.971M134.5 63C159.319 64.7793 172.552 64.5772 193.5 59.5M158.499 208.5L156.5 180.515M125.999 210.5L132.353 180M132.353 180L133.499 174.5C125.999 173.5 121.5 171.5 120 168C119.759 167.438 119.969 166.94 120.532 166.5M132.353 180C141.607 183.927 146.884 184.424 156.5 180.515M156.5 180.515L155.999 173.5C161.043 173.121 164.276 172.068 166 170C166.274 169.671 166.368 169.336 166.301 169M120.532 166.5C123.47 164.204 136.012 163.5 144 163.5C154.684 163.5 165.763 166.274 166.301 169M120.532 166.5C113 170 105.519 168.346 96.5 173.5C89.5 177.5 83.5 195 70 209.5M251.5 176L282.5 161.5M251.5 176L215.5 214.5M251.5 176L200.5 169.389M282.5 161.5L241 212.5L215.5 214.5M282.5 161.5C281 155 251.5 160 250 172C242.5 157 212.5 161.5 200.5 169.389M215.5 214.5L158.5 212.5L183 185.173M200.5 169.389L197.5 169L183 185.173M166.301 169C167.19 173.5 177 179 183 185.173M136.846 101.426C142.123 101.479 147.373 101.5 152.502 101.5C154.722 101.5 156.91 101.5 159.065 101.499M136.846 101.426C132.747 109.133 135.403 119.592 140 122C150.5 127.5 158 121.5 160.5 114.5C162.204 109.73 161.29 105.218 159.065 101.499M136.846 101.426C133.619 101.394 130.381 101.349 127.154 101.291M159.065 101.499C168.655 101.496 177.606 101.481 185.87 101.415M185.87 101.415C185.033 102.713 184.395 104.096 184 105.5C182.032 112.5 181.5 124 195.999 123.5C201.416 123.314 209.61 111.634 207.563 101.054M185.87 101.415C193.738 101.353 200.983 101.244 207.563 101.054M207.563 101.054C208.473 101.028 209.37 101.001 210.254 100.971" stroke="#1F002E" stroke-width="3" stroke-linecap="round" stroke-linejoin="round"/>
<path d="M157 124C157 121.791 158.791 120 161 120C163.209 120 165 121.791 165 124C165 126.209 163.209 128 161 128C158.791 128 157 126.209 157 124ZM161 116C156.582 116 153 119.582 153 124C153 128.418 156.582 132 161 132C164.85 132 168.065 129.28 168.828 125.657C170.989 125.288 172.762 125.408 174.163 125.653C174.914 128.998 177.898 131.5 181.47 131.5C185.631 131.5 188.932 128.082 188.96 124.014C188.988 119.898 185.606 116.5 181.47 116.5C178.157 116.5 175.35 118.653 174.361 121.633C172.796 121.4 170.885 121.308 168.645 121.636C167.637 118.372 164.596 116 161 116ZM177.98 124C177.98 122.064 179.546 120.5 181.47 120.5C183.397 120.5 184.973 122.101 184.96 123.986C184.946 125.916 183.373 127.5 181.47 127.5C179.546 127.5 177.98 125.936 177.98 124Z" fill="#1F002E" stroke="#F8FAFC"/>
</g>
<rect x="1" y="1" width="330" height="199" rx="11" stroke="#D1CBE1" stroke-width="2"/>
<defs>
<clipPath id="clip0_1429_683">
<rect width="332" height="201" rx="12" fill="white"/>
</clipPath>
</defs>
</svg>
