<svg width="332" height="201" viewBox="0 0 332 201" fill="none" xmlns="http://www.w3.org/2000/svg">
<g clip-path="url(#clip0_1379_4800)">
<path d="M246 120.794C245.384 121.7 244.718 122.603 244 123.5L240.942 122C239.183 125.49 238.701 128.667 239.371 131.5C241.102 138.814 250.519 143.832 265.5 146C251.5 142 250.5 131 252 122.741L246 120.794Z" fill="#AF98CB"/>
<path d="M310.5 127.289L303 128.211C300 139 284.5 148 265.5 146C292.344 149.885 306.462 143.541 310.5 136.233C312.178 133.197 312.115 129.994 310.5 127.289Z" fill="#AF98CB"/>
<path d="M51.5 76.5C40 79.375 26 84 8.5 78.5C23.5 84 38 88.5 52.6064 85C53.642 81.547 54.9514 78.3453 56.5 75.4913C54.7841 75.7593 53.1166 76.0959 51.5 76.5Z" fill="#AF98CB"/>
<path d="M96 184C96 186.87 99.5 190 108.5 188V195C115.706 199.485 120.047 201.387 131.375 197.5L133 191C143.865 194.491 154.849 191.452 156.5 186.5C156.673 185.98 156.747 185.48 156.731 185C156.613 181.329 151.307 178.845 146 177.658C140.14 178.224 133.191 178.182 124.5 177.5C119.697 177.123 115.208 176.494 111 175.628C102.5 177 96 180 96 184Z" fill="#AF98CB"/>
<path fill-rule="evenodd" clip-rule="evenodd" d="M172.5 26C131.743 24.228 101.767 46.1042 92.7875 78.5C90.9579 85.1004 90 92.1374 90 99.5001C90 113.005 93.6476 125.256 100 135.561C112.463 155.777 135.336 168.5 161.5 168.5C165.247 168.5 168.919 168.249 172.5 167.761C200.858 163.89 223.459 145.081 231.767 117.5C233.469 111.85 234.572 105.833 235.001 99.5001C235.239 95.984 235.115 92.2873 234.642 88.5C234.212 85.0525 233.493 81.5299 232.495 78C230.97 72.6029 228.792 67.1888 226 62.0004C221.695 54.0006 215.927 46.5374 208.832 40.5C199.103 32.2224 186.877 26.6251 172.5 26ZM115 99C115 67 138 45.5 169.503 45.5C198.646 45.5 221.5 65 221.5 99C221.5 119 206.003 148.5 169.503 148.5C129 148.5 115 119 115 99Z" fill="#AF98CB"/>
<path d="M92.7875 78.5C101.767 46.1042 131.743 24.228 172.5 26C186.877 26.6251 199.103 32.2224 208.832 40.5H211.5L198 8.38889L203.5 3.5L231 8L217.5 -6L123 0L77.5 47.2879L66 46C61.332 54.0554 55.9032 61.9267 50 63C28 67 20.5 67.5 8.5 78.5C26 84 40 79.375 51.5 76.5C53.1166 76.0959 54.7841 75.7593 56.5 75.4913C66.9907 73.8528 79.2883 74.778 92.7875 78.5Z" fill="#AF98CB"/>
<path d="M108.5 188C99.5 190 96 186.87 96 184C94 191.5 85 199 78.5 208L108.5 211V195V188Z" fill="#AF98CB"/>
<path d="M108.5 195V211H128L131.375 197.5C120.047 201.387 115.706 199.485 108.5 195Z" fill="#AF98CB"/>
<path d="M156.5 186.5C154.849 191.452 143.865 194.491 133 191L131.375 197.5L128 211L180.5 209C185.654 205.971 190.302 203.192 194.607 200.5C172.563 201.166 160.5 195 156.731 185C156.747 185.48 156.673 185.98 156.5 186.5Z" fill="#AF98CB"/>
<path d="M265.5 146C250.519 143.832 241.102 138.814 239.371 131.5C237.792 144.685 236.94 152.083 237 165.5C222.008 181.588 210.711 190.431 194.607 200.5C190.302 203.192 185.654 205.971 180.5 209L260.5 216.5L287.5 197L310.5 136.233C306.462 143.541 292.344 149.885 265.5 146Z" fill="#AF98CB"/>
<path d="M225.25 51.2502L226 62.0004C228.792 67.1888 230.97 72.6029 232.495 78C237.554 77.2043 240.832 76.8708 247.5 76.5C241.499 66.375 235.505 60.9569 225.25 51.2502Z" fill="#AF98CB"/>
<path d="M208.832 40.5C215.927 46.5374 221.695 54.0006 226 62.0004L225.25 51.2502L224.5 40.5H211.5H208.832Z" fill="#AF98CB"/>
<path d="M66.5002 78C74.0002 77 77.9761 85.072 78.0002 94C78.0205 101.5 73.5591 111.419 65.0002 109C58.5 107.163 58 86 62 79.8444C63.4209 78.8091 64.9665 78.2045 66.5002 78Z" fill="#1F002E"/>
<path d="M244 115.794C243.384 116.7 242.718 117.603 242 118.5L238.942 117C237.183 120.49 236.701 123.667 237.371 126.5C239.102 133.814 248.519 138.832 263.5 141C249.5 137 248.5 126 250 117.741L244 115.794Z" fill="#1F002E"/>
<path d="M308.5 122.289L301 123.211C298 134 282.5 143 263.5 141C290.344 144.885 304.462 138.541 308.5 131.233C310.178 128.197 310.115 124.994 308.5 122.289Z" fill="#1F002E"/>
<path d="M49.5 71.5C38 74.375 24 79 6.5 73.5C21.5 79 36 83.5 50.6064 80C51.642 76.547 52.9514 73.3453 54.5 70.4913C52.7841 70.7593 51.1166 71.0959 49.5 71.5Z" fill="#1F002E"/>
<path d="M94 179C94 181.87 97.5 185 106.5 183V190C113.706 194.485 118.047 196.387 129.375 192.5L131 186C141.865 189.491 152.849 186.452 154.5 181.5C154.673 180.98 154.747 180.48 154.731 180C154.613 176.329 149.307 173.845 144 172.658C138.14 173.224 131.191 173.182 122.5 172.5C117.697 172.123 113.208 171.494 109 170.628C100.5 172 94 175 94 179Z" fill="#1F002E"/>
<path d="M179.499 68.5C166.498 65.5 150.5 70.5 144.499 83.5C138.96 95.5007 144.5 118.5 161.5 117C175.587 115.757 183 101 183 86.0001C183 78 181.999 74.5 179.499 68.5Z" fill="#1F002E"/>
<path d="M56 92C56.6733 85.9405 59.0719 81.9779 62 79.8444M62 79.8444C63.4209 78.8091 64.9665 78.2045 66.5002 78C74.0002 77 77.9761 85.072 78.0002 94C78.0205 101.5 73.5591 111.419 65.0002 109C58.5 107.163 58 86 62 79.8444ZM90.7875 73.5C99.767 41.1042 129.743 19.228 170.5 21C184.877 21.6251 197.103 27.2224 206.832 35.5M90.7875 73.5C88.958 80.1004 88 87.1374 88 94.5001C88 108.005 91.6476 120.256 98 130.561M90.7875 73.5C77.2883 69.778 64.9907 68.8528 54.5 70.4913M6.5 73.5C24 79 38 74.375 49.5 71.5C51.1166 71.0959 52.7841 70.7593 54.5 70.4913M6.5 73.5C18.5 62.5 26 62 48 58C53.9032 56.9267 59.332 49.0554 64 41L75.5 42.2879M6.5 73.5C21.5 79 36 83.5 50.6064 80M90.7875 44L75.5 42.2879M75.5 42.2879L121 -5M224 57.0004C219.695 49.0006 213.927 41.5374 206.832 35.5M224 57.0004L223.25 46.2502M224 57.0004C226.792 62.1888 228.97 67.6029 230.495 73M206.832 35.5H209.5M209.5 35.5H222.5L223.25 46.2502M209.5 35.5L196 3.38889M188 10.5L196 3.38889M215.5 -11L229 3L201.5 -1.5L196 3.38889M232.642 83.5C233.115 87.2873 233.239 90.984 233.001 94.5001C232.572 100.833 231.469 106.85 229.767 112.5M232.642 83.5L245.5 80.5C251.533 91.6387 251.967 104.07 244 115.794M232.642 83.5C232.212 80.0525 231.493 76.5299 230.495 73M229.767 112.5L238.942 117M229.767 112.5C221.459 140.081 198.858 158.89 170.5 162.761M252 83L269.5 65L274 68.5M278.5 72L274 68.5M274 68.5L277.5 65L288.5 64M297 60L308.5 63.5M265 77L263.5 88M280 78V90M297 72V86.5M312.5 85L313 73L322 74.5C326.5 90 326.5 105.5 319 121L308.5 122.289M290.5 124.5L301 123.211M262.5 123.5L267 110.5M269.5 106.5L284.5 108.5M287.5 117L282 129.5M284.5 104L293 102.5M299 98.5L298 108.5M304 97.5L314.5 96.5L314 103.5M280 98.5L266 96.5M244 115.794C243.384 116.7 242.718 117.603 242 118.5L238.942 117M244 115.794L250 117.741M258.5 120.5L250 117.741M238.942 117C237.183 120.49 236.701 123.667 237.371 126.5M263.5 141C249.5 137 248.5 126 250 117.741M263.5 141C282.5 143 298 134 301 123.211M263.5 141C248.519 138.832 239.102 133.814 237.371 126.5M263.5 141C290.344 144.885 304.462 138.541 308.5 131.233M308.5 122.289L301 123.211M308.5 122.289C310.115 124.994 310.178 128.197 308.5 131.233M223.25 46.2502C233.505 55.9569 239.499 61.375 245.5 71.5C238.832 71.8708 235.554 72.2043 230.495 73M237.371 126.5C235.792 139.685 234.94 147.083 235 160.5C220.008 176.588 208.711 185.431 192.607 195.5M178.5 204C183.654 200.971 188.302 198.192 192.607 195.5M308.5 131.233L285.5 192L258.5 211.5M54.5 70.4913C52.9514 73.3453 51.642 76.547 50.6064 80M170.5 162.761C166.919 163.249 163.247 163.5 159.5 163.5C133.336 163.5 110.463 150.777 98 130.561M170.5 162.761C163.311 167.697 156.66 170.932 147 172.302C146.031 172.44 145.033 172.559 144 172.658M50.6064 80C45.2887 97.73 47.1896 122.084 61 140C72.6472 155.11 86.9971 166.1 109 170.628M94 179C94 181.87 97.5 185 106.5 183V190M94 179C94 175 100.5 172 109 170.628M94 179C92 186.5 83 194 76.5 203M109 170.628C113.208 171.494 117.697 172.123 122.5 172.5C131.191 173.182 138.14 173.224 144 172.658M106.5 206V190M126 206L129.375 192.5M144 172.658C149.307 173.845 154.613 176.329 154.731 180M106.5 190C113.706 194.485 118.047 196.387 129.375 192.5M129.375 192.5L131 186C141.865 189.491 152.849 186.452 154.5 181.5C154.673 180.98 154.747 180.48 154.731 180M154.731 180C158.5 190 170.563 196.166 192.607 195.5M82.5 129.5C86.5 136 94.5 135.5 98 130.561M197.5 99.0001C199 82.5001 188.653 70.6123 179.499 68.5M179.499 68.5C166.498 65.5 150.5 70.5 144.499 83.5C138.96 95.5007 144.5 118.5 161.5 117C175.587 115.757 183 101 183 86.0001C183 78 181.999 74.5 179.499 68.5ZM167.503 40.5C136 40.5 113 62 113 94C113 114 127 143.5 167.503 143.5C204.003 143.5 219.5 114 219.5 94C219.5 60 196.646 40.5 167.503 40.5Z" stroke="#1F002E" stroke-width="3" stroke-linecap="round" stroke-linejoin="round"/>
</g>
<rect x="1" y="1" width="330" height="199" rx="11" stroke="#D1CBE1" stroke-width="2"/>
<defs>
<clipPath id="clip0_1379_4800">
<rect width="332" height="201" rx="12" fill="white"/>
</clipPath>
</defs>
</svg>
